{"glyphs":{"0":{"ha":540,"x_min":0,"x_max":463,"o":"m 77 849 l 386 849 l 386 772 l 463 772 l 463 77 l 386 77 l 386 0 l 77 0 l 77 77 l 0 77 l 0 772 l 77 772 l 77 849 m 154 694 l 154 154 l 309 154 l 309 694 l 154 694 z "},"1":{"ha":540,"x_min":0,"x_max":463,"o":"m 154 849 l 309 849 l 309 154 l 463 154 l 463 0 l 0 0 l 0 154 l 154 154 l 154 617 l 0 617 l 0 772 l 154 772 l 154 849 z "},"2":{"ha":540,"x_min":0,"x_max":463,"o":"m 77 849 l 386 849 l 386 772 l 463 772 l 463 386 l 386 386 l 386 309 l 309 309 l 309 231 l 231 231 l 231 154 l 463 154 l 463 0 l 0 0 l 0 231 l 77 231 l 77 309 l 154 309 l 154 386 l 231 386 l 231 463 l 309 463 l 309 694 l 154 694 l 154 617 l 0 617 l 0 772 l 77 772 l 77 849 z "},"3":{"ha":540,"x_min":0,"x_max":463,"o":"m 77 849 l 386 849 l 386 772 l 463 772 l 463 540 l 386 540 l 386 463 l 463 463 l 463 77 l 386 77 l 386 0 l 77 0 l 77 77 l 0 77 l 0 231 l 154 231 l 154 154 l 309 154 l 309 386 l 154 386 l 154 540 l 309 540 l 309 694 l 154 694 l 154 617 l 0 617 l 0 772 l 77 772 l 77 849 z "},"4":{"ha":540,"x_min":0,"x_max":463,"o":"m 0 849 l 154 849 l 154 463 l 309 463 l 309 849 l 463 849 l 463 0 l 309 0 l 309 309 l 77 309 l 77 386 l 0 386 l 0 849 z "},"5":{"ha":540,"x_min":0,"x_max":463,"o":"m 0 849 l 463 849 l 463 694 l 154 694 l 154 540 l 386 540 l 386 463 l 463 463 l 463 77 l 386 77 l 386 0 l 0 0 l 0 154 l 309 154 l 309 386 l 0 386 l 0 849 z "},"6":{"ha":540,"x_min":0,"x_max":463,"o":"m 77 849 l 386 849 l 386 772 l 463 772 l 463 617 l 309 617 l 309 694 l 154 694 l 154 540 l 386 540 l 386 463 l 463 463 l 463 77 l 386 77 l 386 0 l 77 0 l 77 77 l 0 77 l 0 772 l 77 772 l 77 849 m 154 386 l 154 154 l 309 154 l 309 386 l 154 386 z "},"7":{"ha":540,"x_min":0,"x_max":463,"o":"m 0 849 l 463 849 l 463 463 l 386 463 l 386 309 l 309 309 l 309 0 l 154 0 l 154 386 l 231 386 l 231 540 l 309 540 l 309 694 l 0 694 l 0 849 z "},"8":{"ha":540,"x_min":0,"x_max":463,"o":"m 77 849 l 386 849 l 386 772 l 463 772 l 463 540 l 386 540 l 386 463 l 463 463 l 463 77 l 386 77 l 386 0 l 77 0 l 77 77 l 0 77 l 0 463 l 77 463 l 77 540 l 0 540 l 0 772 l 77 772 l 77 849 m 154 694 l 154 540 l 309 540 l 309 694 l 154 694 m 154 386 l 154 154 l 309 154 l 309 386 l 154 386 z "},"9":{"ha":540,"x_min":0,"x_max":463,"o":"m 77 849 l 386 849 l 386 772 l 463 772 l 463 77 l 386 77 l 386 0 l 77 0 l 77 77 l 0 77 l 0 231 l 154 231 l 154 154 l 309 154 l 309 309 l 77 309 l 77 386 l 0 386 l 0 772 l 77 772 l 77 849 m 154 694 l 154 463 l 309 463 l 309 694 l 154 694 z "},"¯":{"ha":77,"x_min":0,"x_max":0,"o":""},"·":{"ha":77,"x_min":0,"x_max":0,"o":""},"¸":{"ha":77,"x_min":0,"x_max":0,"o":""},"¹":{"ha":77,"x_min":0,"x_max":0,"o":""},"Į":{"ha":77,"x_min":0,"x_max":0,"o":""},"į":{"ha":77,"x_min":0,"x_max":0,"o":""},"Ő":{"ha":77,"x_min":0,"x_max":0,"o":""},"ő":{"ha":77,"x_min":0,"x_max":0,"o":""},"Ŝ":{"ha":77,"x_min":0,"x_max":0,"o":""},"ŝ":{"ha":77,"x_min":0,"x_max":0,"o":""},"\r":{"ha":77,"x_min":0,"x_max":0,"o":""}," ":{"ha":386,"x_min":0,"x_max":0,"o":""},"!":{"ha":231,"x_min":0,"x_max":154,"o":"m 0 849 l 154 849 l 154 231 l 0 231 l 0 849 m 0 154 l 154 154 l 154 0 l 0 0 l 0 154 z "},"\"":{"ha":463,"x_min":0,"x_max":386,"o":"m 0 849 l 154 849 l 154 617 l 77 617 l 77 694 l 0 694 l 0 849 m 231 849 l 386 849 l 386 617 l 309 617 l 309 694 l 231 694 l 231 849 z "},"#":{"ha":617,"x_min":0,"x_max":540,"o":"m 77 849 l 231 849 l 231 617 l 309 617 l 309 849 l 463 849 l 463 617 l 540 617 l 540 463 l 463 463 l 463 386 l 540 386 l 540 231 l 463 231 l 463 0 l 309 0 l 309 231 l 231 231 l 231 0 l 77 0 l 77 231 l 0 231 l 0 386 l 77 386 l 77 463 l 0 463 l 0 617 l 77 617 l 77 849 m 231 463 l 231 386 l 309 386 l 309 463 l 231 463 z "},"$":{"ha":540,"x_min":0,"x_max":463,"o":"m 154 849 l 309 849 l 309 694 l 463 694 l 463 540 l 154 540 l 154 463 l 386 463 l 386 386 l 463 386 l 463 154 l 386 154 l 386 77 l 309 77 l 309 -77 l 154 -77 l 154 77 l 0 77 l 0 231 l 309 231 l 309 309 l 77 309 l 77 386 l 0 386 l 0 617 l 77 617 l 77 694 l 154 694 l 154 849 z "},"%":{"ha":540,"x_min":0,"x_max":463,"o":"m 0 694 l 154 694 l 154 540 l 0 540 l 0 694 m 309 617 l 463 617 l 463 463 l 386 463 l 386 386 l 309 386 l 309 309 l 231 309 l 231 231 l 154 231 l 154 154 l 0 154 l 0 309 l 77 309 l 77 386 l 154 386 l 154 463 l 231 463 l 231 540 l 309 540 l 309 617 m 309 231 l 463 231 l 463 77 l 309 77 l 309 231 z "},"&":{"ha":772,"x_min":0,"x_max":694,"o":"m 154 849 l 463 849 l 463 772 l 540 772 l 540 463 l 463 463 l 463 386 l 540 386 l 540 463 l 694 463 l 694 309 l 617 309 l 617 231 l 540 231 l 540 154 l 694 154 l 694 0 l 463 0 l 463 77 l 386 77 l 386 0 l 77 0 l 77 77 l 0 77 l 0 463 l 77 463 l 77 772 l 154 772 l 154 849 m 231 694 l 231 540 l 386 540 l 386 694 l 231 694 m 154 386 l 154 154 l 309 154 l 309 309 l 231 309 l 231 386 l 154 386 z "},"'":{"ha":231,"x_min":0,"x_max":154,"o":"m 0 849 l 154 849 l 154 617 l 77 617 l 77 694 l 0 694 l 0 849 z "},"(":{"ha":386,"x_min":0,"x_max":309,"o":"m 77 849 l 309 849 l 309 694 l 154 694 l 154 0 l 309 0 l 309 -154 l 77 -154 l 77 -77 l 0 -77 l 0 772 l 77 772 l 77 849 z "},")":{"ha":386,"x_min":0,"x_max":309,"o":"m 0 849 l 231 849 l 231 772 l 309 772 l 309 -77 l 231 -77 l 231 -154 l 0 -154 l 0 0 l 154 0 l 154 694 l 0 694 l 0 849 z "},"*":{"ha":463,"x_min":0,"x_max":386,"o":"m 0 849 l 154 849 l 154 772 l 231 772 l 231 849 l 386 849 l 386 694 l 309 694 l 309 617 l 386 617 l 386 463 l 231 463 l 231 540 l 154 540 l 154 463 l 0 463 l 0 617 l 77 617 l 77 694 l 0 694 l 0 849 z "},"+":{"ha":540,"x_min":0,"x_max":463,"o":"m 154 617 l 309 617 l 309 463 l 463 463 l 463 309 l 309 309 l 309 154 l 154 154 l 154 309 l 0 309 l 0 463 l 154 463 l 154 617 z "},",":{"ha":231,"x_min":0,"x_max":154,"o":"m 0 154 l 154 154 l 154 -77 l 77 -77 l 77 0 l 0 0 l 0 154 z "},"-":{"ha":540,"x_min":0,"x_max":463,"o":"m 0 463 l 463 463 l 463 309 l 0 309 l 0 463 z "},".":{"ha":231,"x_min":0,"x_max":154,"o":"m 0 154 l 154 154 l 154 0 l 0 0 l 0 154 z "},"/":{"ha":540,"x_min":0,"x_max":463,"o":"m 309 849 l 463 849 l 463 617 l 386 617 l 386 463 l 309 463 l 309 309 l 231 309 l 231 154 l 154 154 l 154 0 l 0 0 l 0 231 l 77 231 l 77 386 l 154 386 l 154 540 l 231 540 l 231 694 l 309 694 l 309 849 z "},":":{"ha":231,"x_min":0,"x_max":154,"o":"m 0 617 l 154 617 l 154 463 l 0 463 l 0 617 m 0 154 l 154 154 l 154 0 l 0 0 l 0 154 z "},";":{"ha":231,"x_min":0,"x_max":154,"o":"m 0 617 l 154 617 l 154 463 l 0 463 l 0 617 m 0 154 l 154 154 l 154 -77 l 77 -77 l 77 0 l 0 0 l 0 154 z "},"<":{"ha":463,"x_min":0,"x_max":386,"o":"m 231 617 l 386 617 l 386 463 l 309 463 l 309 386 l 231 386 l 231 231 l 309 231 l 309 154 l 386 154 l 386 0 l 231 0 l 231 77 l 154 77 l 154 154 l 77 154 l 77 231 l 0 231 l 0 386 l 77 386 l 77 463 l 154 463 l 154 540 l 231 540 l 231 617 z "},"=":{"ha":540,"x_min":0,"x_max":463,"o":"m 0 617 l 463 617 l 463 463 l 0 463 l 0 617 m 0 309 l 463 309 l 463 154 l 0 154 l 0 309 z "},">":{"ha":463,"x_min":0,"x_max":386,"o":"m 0 617 l 154 617 l 154 540 l 231 540 l 231 463 l 309 463 l 309 386 l 386 386 l 386 231 l 309 231 l 309 154 l 231 154 l 231 77 l 154 77 l 154 0 l 0 0 l 0 154 l 77 154 l 77 231 l 154 231 l 154 386 l 77 386 l 77 463 l 0 463 l 0 617 z "},"?":{"ha":540,"x_min":0,"x_max":463,"o":"m 77 849 l 386 849 l 386 772 l 463 772 l 463 463 l 386 463 l 386 386 l 309 386 l 309 231 l 154 231 l 154 463 l 231 463 l 231 540 l 309 540 l 309 694 l 154 694 l 154 617 l 0 617 l 0 772 l 77 772 l 77 849 m 154 154 l 309 154 l 309 0 l 154 0 l 154 154 z "},"@":{"ha":772,"x_min":0,"x_max":694,"o":"m 154 849 l 540 849 l 540 772 l 617 772 l 617 694 l 694 694 l 694 309 l 617 309 l 617 231 l 309 231 l 309 309 l 231 309 l 231 540 l 309 540 l 309 617 l 463 617 l 463 694 l 231 694 l 231 617 l 154 617 l 154 231 l 231 231 l 231 154 l 694 154 l 694 0 l 154 0 l 154 77 l 77 77 l 77 154 l 0 154 l 0 694 l 77 694 l 77 772 l 154 772 l 154 849 m 386 463 l 386 386 l 463 386 l 463 463 l 386 463 z "},"A":{"ha":540,"x_min":0,"x_max":463,"o":"m 77 849 l 386 849 l 386 772 l 463 772 l 463 0 l 309 0 l 309 309 l 154 309 l 154 0 l 0 0 l 0 772 l 77 772 l 77 849 m 154 694 l 154 463 l 309 463 l 309 694 l 154 694 z "},"B":{"ha":540,"x_min":0,"x_max":463,"o":"m 0 849 l 386 849 l 386 772 l 463 772 l 463 463 l 386 463 l 386 386 l 463 386 l 463 77 l 386 77 l 386 0 l 0 0 l 0 849 m 154 694 l 154 540 l 309 540 l 309 694 l 154 694 m 154 386 l 154 154 l 309 154 l 309 386 l 154 386 z "},"C":{"ha":540,"x_min":0,"x_max":463,"o":"m 77 849 l 463 849 l 463 694 l 154 694 l 154 154 l 463 154 l 463 0 l 77 0 l 77 77 l 0 77 l 0 772 l 77 772 l 77 849 z "},"D":{"ha":540,"x_min":0,"x_max":463,"o":"m 0 849 l 386 849 l 386 772 l 463 772 l 463 77 l 386 77 l 386 0 l 0 0 l 0 849 m 154 694 l 154 154 l 309 154 l 309 694 l 154 694 z "},"E":{"ha":540,"x_min":0,"x_max":463,"o":"m 77 849 l 463 849 l 463 694 l 154 694 l 154 540 l 386 540 l 386 386 l 154 386 l 154 154 l 463 154 l 463 0 l 77 0 l 77 77 l 0 77 l 0 772 l 77 772 l 77 849 z "},"F":{"ha":540,"x_min":0,"x_max":463,"o":"m 77 849 l 463 849 l 463 694 l 154 694 l 154 540 l 386 540 l 386 386 l 154 386 l 154 0 l 0 0 l 0 772 l 77 772 l 77 849 z "},"G":{"ha":540,"x_min":0,"x_max":463,"o":"m 77 849 l 463 849 l 463 694 l 154 694 l 154 154 l 309 154 l 309 386 l 231 386 l 231 540 l 463 540 l 463 77 l 386 77 l 386 0 l 77 0 l 77 77 l 0 77 l 0 772 l 77 772 l 77 849 z "},"H":{"ha":540,"x_min":0,"x_max":463,"o":"m 0 849 l 154 849 l 154 540 l 309 540 l 309 849 l 463 849 l 463 0 l 309 0 l 309 386 l 154 386 l 154 0 l 0 0 l 0 849 z "},"I":{"ha":540,"x_min":0,"x_max":463,"o":"m 0 849 l 463 849 l 463 694 l 309 694 l 309 154 l 463 154 l 463 0 l 0 0 l 0 154 l 154 154 l 154 694 l 0 694 l 0 849 z "},"J":{"ha":540,"x_min":0,"x_max":463,"o":"m 0 849 l 463 849 l 463 77 l 386 77 l 386 0 l 77 0 l 77 77 l 0 77 l 0 231 l 154 231 l 154 154 l 309 154 l 309 694 l 0 694 l 0 849 z "},"K":{"ha":540,"x_min":0,"x_max":463,"o":"m 0 849 l 154 849 l 154 540 l 231 540 l 231 617 l 309 617 l 309 849 l 463 849 l 463 540 l 386 540 l 386 463 l 309 463 l 309 386 l 386 386 l 386 309 l 463 309 l 463 0 l 309 0 l 309 231 l 231 231 l 231 309 l 154 309 l 154 0 l 0 0 l 0 849 z "},"L":{"ha":540,"x_min":0,"x_max":463,"o":"m 0 849 l 154 849 l 154 154 l 463 154 l 463 0 l 77 0 l 77 77 l 0 77 l 0 849 z "},"M":{"ha":694,"x_min":0,"x_max":617,"o":"m 0 849 l 540 849 l 540 772 l 617 772 l 617 0 l 463 0 l 463 694 l 386 694 l 386 154 l 231 154 l 231 694 l 154 694 l 154 0 l 0 0 l 0 849 z "},"N":{"ha":540,"x_min":0,"x_max":463,"o":"m 0 849 l 386 849 l 386 772 l 463 772 l 463 0 l 309 0 l 309 694 l 154 694 l 154 0 l 0 0 l 0 849 z "},"O":{"ha":540,"x_min":0,"x_max":463,"o":"m 77 849 l 386 849 l 386 772 l 463 772 l 463 77 l 386 77 l 386 0 l 77 0 l 77 77 l 0 77 l 0 772 l 77 772 l 77 849 m 154 694 l 154 154 l 309 154 l 309 694 l 154 694 z "},"P":{"ha":540,"x_min":0,"x_max":463,"o":"m 0 849 l 386 849 l 386 772 l 463 772 l 463 386 l 386 386 l 386 309 l 154 309 l 154 0 l 0 0 l 0 849 m 154 694 l 154 463 l 309 463 l 309 694 l 154 694 z "},"Q":{"ha":617,"x_min":0,"x_max":540,"o":"m 77 849 l 386 849 l 386 772 l 463 772 l 463 154 l 540 154 l 540 0 l 386 0 l 386 77 l 309 77 l 309 0 l 77 0 l 77 77 l 0 77 l 0 772 l 77 772 l 77 849 m 154 694 l 154 154 l 231 154 l 231 231 l 309 231 l 309 694 l 154 694 z "},"R":{"ha":540,"x_min":0,"x_max":463,"o":"m 0 849 l 386 849 l 386 772 l 463 772 l 463 463 l 386 463 l 386 386 l 463 386 l 463 0 l 309 0 l 309 309 l 231 309 l 231 386 l 154 386 l 154 0 l 0 0 l 0 849 m 154 694 l 154 540 l 309 540 l 309 694 l 154 694 z "},"S":{"ha":540,"x_min":0,"x_max":463,"o":"m 77 849 l 463 849 l 463 694 l 154 694 l 154 540 l 386 540 l 386 463 l 463 463 l 463 77 l 386 77 l 386 0 l 0 0 l 0 154 l 309 154 l 309 386 l 77 386 l 77 463 l 0 463 l 0 772 l 77 772 l 77 849 z "},"T":{"ha":540,"x_min":0,"x_max":463,"o":"m 0 849 l 463 849 l 463 694 l 309 694 l 309 0 l 154 0 l 154 694 l 0 694 l 0 849 z "},"U":{"ha":540,"x_min":0,"x_max":463,"o":"m 0 849 l 154 849 l 154 154 l 309 154 l 309 849 l 463 849 l 463 77 l 386 77 l 386 0 l 77 0 l 77 77 l 0 77 l 0 849 z "},"V":{"ha":540,"x_min":0,"x_max":463,"o":"m 0 849 l 154 849 l 154 231 l 309 231 l 309 849 l 463 849 l 463 154 l 386 154 l 386 77 l 309 77 l 309 0 l 154 0 l 154 77 l 77 77 l 77 154 l 0 154 l 0 849 z "},"W":{"ha":694,"x_min":0,"x_max":617,"o":"m 0 849 l 154 849 l 154 154 l 231 154 l 231 540 l 386 540 l 386 154 l 463 154 l 463 849 l 617 849 l 617 77 l 540 77 l 540 0 l 77 0 l 77 77 l 0 77 l 0 849 z "},"X":{"ha":617,"x_min":0,"x_max":540,"o":"m 0 849 l 154 849 l 154 617 l 231 617 l 231 540 l 309 540 l 309 617 l 386 617 l 386 849 l 540 849 l 540 540 l 463 540 l 463 463 l 386 463 l 386 386 l 463 386 l 463 309 l 540 309 l 540 0 l 386 0 l 386 231 l 309 231 l 309 309 l 231 309 l 231 231 l 154 231 l 154 0 l 0 0 l 0 309 l 77 309 l 77 386 l 154 386 l 154 463 l 77 463 l 77 540 l 0 540 l 0 849 z "},"Y":{"ha":540,"x_min":0,"x_max":463,"o":"m 0 849 l 154 849 l 154 540 l 309 540 l 309 849 l 463 849 l 463 463 l 386 463 l 386 386 l 309 386 l 309 0 l 154 0 l 154 386 l 77 386 l 77 463 l 0 463 l 0 849 z "},"Z":{"ha":540,"x_min":0,"x_max":463,"o":"m 0 849 l 463 849 l 463 617 l 386 617 l 386 463 l 309 463 l 309 309 l 231 309 l 231 154 l 463 154 l 463 0 l 0 0 l 0 231 l 77 231 l 77 386 l 154 386 l 154 540 l 231 540 l 231 694 l 0 694 l 0 849 z "},"[":{"ha":386,"x_min":0,"x_max":309,"o":"m 0 849 l 309 849 l 309 694 l 154 694 l 154 0 l 309 0 l 309 -154 l 0 -154 l 0 849 z "},"\\":{"ha":540,"x_min":0,"x_max":463,"o":"m 0 849 l 154 849 l 154 694 l 231 694 l 231 540 l 309 540 l 309 386 l 386 386 l 386 231 l 463 231 l 463 0 l 309 0 l 309 154 l 231 154 l 231 309 l 154 309 l 154 463 l 77 463 l 77 617 l 0 617 l 0 849 z "},"]":{"ha":386,"x_min":0,"x_max":309,"o":"m 0 849 l 309 849 l 309 -154 l 0 -154 l 0 0 l 154 0 l 154 694 l 0 694 l 0 849 z "},"^":{"ha":540,"x_min":0,"x_max":463,"o":"m 154 849 l 309 849 l 309 772 l 386 772 l 386 694 l 463 694 l 463 540 l 309 540 l 309 617 l 154 617 l 154 540 l 0 540 l 0 694 l 77 694 l 77 772 l 154 772 l 154 849 z "},"_":{"ha":540,"x_min":0,"x_max":463,"o":"m 0 154 l 463 154 l 463 0 l 0 0 l 0 154 z "},"a":{"ha":540,"x_min":0,"x_max":463,"o":"m 0 617 l 386 617 l 386 540 l 463 540 l 463 0 l 77 0 l 77 77 l 0 77 l 0 309 l 77 309 l 77 386 l 309 386 l 309 463 l 0 463 l 0 617 m 154 231 l 154 154 l 309 154 l 309 231 l 154 231 z "},"b":{"ha":540,"x_min":0,"x_max":463,"o":"m 0 849 l 154 849 l 154 617 l 386 617 l 386 540 l 463 540 l 463 77 l 386 77 l 386 0 l 0 0 l 0 849 m 154 463 l 154 154 l 309 154 l 309 463 l 154 463 z "},"c":{"ha":540,"x_min":0,"x_max":463,"o":"m 77 617 l 463 617 l 463 463 l 154 463 l 154 154 l 463 154 l 463 0 l 77 0 l 77 77 l 0 77 l 0 540 l 77 540 l 77 617 z "},"d":{"ha":540,"x_min":0,"x_max":463,"o":"m 309 849 l 463 849 l 463 0 l 77 0 l 77 77 l 0 77 l 0 540 l 77 540 l 77 617 l 309 617 l 309 849 m 154 463 l 154 154 l 309 154 l 309 463 l 154 463 z "},"e":{"ha":540,"x_min":0,"x_max":463,"o":"m 77 617 l 386 617 l 386 540 l 463 540 l 463 231 l 154 231 l 154 154 l 463 154 l 463 0 l 77 0 l 77 77 l 0 77 l 0 540 l 77 540 l 77 617 m 154 463 l 154 386 l 309 386 l 309 463 l 154 463 z "},"f":{"ha":540,"x_min":0,"x_max":463,"o":"m 154 849 l 463 849 l 463 694 l 231 694 l 231 617 l 386 617 l 386 463 l 231 463 l 231 0 l 77 0 l 77 463 l 0 463 l 0 617 l 77 617 l 77 772 l 154 772 l 154 849 z "},"g":{"ha":540,"x_min":0,"x_max":463,"o":"m 77 617 l 386 617 l 386 540 l 463 540 l 463 -154 l 386 -154 l 386 -231 l 0 -231 l 0 -77 l 309 -77 l 309 0 l 77 0 l 77 77 l 0 77 l 0 540 l 77 540 l 77 617 m 154 463 l 154 154 l 309 154 l 309 463 l 154 463 z "},"h":{"ha":540,"x_min":0,"x_max":463,"o":"m 0 849 l 154 849 l 154 617 l 386 617 l 386 540 l 463 540 l 463 0 l 309 0 l 309 463 l 154 463 l 154 0 l 0 0 l 0 849 z "},"i":{"ha":231,"x_min":0,"x_max":154,"o":"m 0 849 l 154 849 l 154 694 l 0 694 l 0 849 m 0 617 l 154 617 l 154 0 l 0 0 l 0 617 z "},"j":{"ha":386,"x_min":0,"x_max":309,"o":"m 154 849 l 309 849 l 309 694 l 154 694 l 154 849 m 154 617 l 309 617 l 309 -154 l 231 -154 l 231 -231 l 0 -231 l 0 -77 l 154 -77 l 154 617 z "},"k":{"ha":540,"x_min":0,"x_max":463,"o":"m 0 849 l 154 849 l 154 617 l 386 617 l 386 540 l 463 540 l 463 309 l 386 309 l 386 231 l 463 231 l 463 0 l 309 0 l 309 154 l 231 154 l 231 231 l 154 231 l 154 0 l 0 0 l 0 849 m 154 463 l 154 386 l 309 386 l 309 463 l 154 463 z "},"l":{"ha":231,"x_min":0,"x_max":154,"o":"m 0 849 l 154 849 l 154 0 l 0 0 l 0 849 z "},"m":{"ha":694,"x_min":0,"x_max":617,"o":"m 0 617 l 540 617 l 540 540 l 617 540 l 617 0 l 463 0 l 463 463 l 386 463 l 386 0 l 231 0 l 231 463 l 154 463 l 154 0 l 0 0 l 0 617 z "},"n":{"ha":540,"x_min":0,"x_max":463,"o":"m 0 617 l 386 617 l 386 540 l 463 540 l 463 0 l 309 0 l 309 463 l 154 463 l 154 0 l 0 0 l 0 617 z "},"o":{"ha":540,"x_min":0,"x_max":463,"o":"m 77 617 l 386 617 l 386 540 l 463 540 l 463 77 l 386 77 l 386 0 l 77 0 l 77 77 l 0 77 l 0 540 l 77 540 l 77 617 m 154 463 l 154 154 l 309 154 l 309 463 l 154 463 z "},"p":{"ha":540,"x_min":0,"x_max":463,"o":"m 77 617 l 386 617 l 386 540 l 463 540 l 463 77 l 386 77 l 386 0 l 154 0 l 154 -231 l 0 -231 l 0 540 l 77 540 l 77 617 m 154 463 l 154 154 l 309 154 l 309 463 l 154 463 z "},"q":{"ha":540,"x_min":0,"x_max":463,"o":"m 77 617 l 386 617 l 386 540 l 463 540 l 463 -231 l 309 -231 l 309 0 l 77 0 l 77 77 l 0 77 l 0 540 l 77 540 l 77 617 m 154 463 l 154 154 l 309 154 l 309 463 l 154 463 z "},"r":{"ha":540,"x_min":0,"x_max":463,"o":"m 0 617 l 154 617 l 154 540 l 231 540 l 231 617 l 463 617 l 463 463 l 231 463 l 231 386 l 154 386 l 154 0 l 0 0 l 0 617 z "},"s":{"ha":540,"x_min":0,"x_max":463,"o":"m 77 617 l 463 617 l 463 463 l 154 463 l 154 386 l 386 386 l 386 309 l 463 309 l 463 77 l 386 77 l 386 0 l 0 0 l 0 154 l 309 154 l 309 231 l 77 231 l 77 309 l 0 309 l 0 540 l 77 540 l 77 617 z "},"t":{"ha":540,"x_min":0,"x_max":463,"o":"m 77 849 l 231 849 l 231 617 l 463 617 l 463 463 l 231 463 l 231 154 l 463 154 l 463 0 l 154 0 l 154 77 l 77 77 l 77 463 l 0 463 l 0 617 l 77 617 l 77 849 z "},"u":{"ha":540,"x_min":0,"x_max":463,"o":"m 0 617 l 154 617 l 154 154 l 309 154 l 309 617 l 463 617 l 463 77 l 386 77 l 386 0 l 77 0 l 77 77 l 0 77 l 0 617 z "},"v":{"ha":540,"x_min":0,"x_max":463,"o":"m 0 617 l 154 617 l 154 231 l 309 231 l 309 617 l 463 617 l 463 154 l 386 154 l 386 77 l 309 77 l 309 0 l 154 0 l 154 77 l 77 77 l 77 154 l 0 154 l 0 617 z "},"w":{"ha":694,"x_min":0,"x_max":617,"o":"m 0 617 l 154 617 l 154 154 l 231 154 l 231 540 l 386 540 l 386 154 l 463 154 l 463 617 l 617 617 l 617 77 l 540 77 l 540 0 l 77 0 l 77 77 l 0 77 l 0 617 z "},"x":{"ha":617,"x_min":0,"x_max":540,"o":"m 0 617 l 154 617 l 154 540 l 231 540 l 231 463 l 309 463 l 309 540 l 386 540 l 386 617 l 540 617 l 540 463 l 463 463 l 463 386 l 386 386 l 386 231 l 463 231 l 463 154 l 540 154 l 540 0 l 386 0 l 386 77 l 309 77 l 309 154 l 231 154 l 231 77 l 154 77 l 154 0 l 0 0 l 0 154 l 77 154 l 77 231 l 154 231 l 154 386 l 77 386 l 77 463 l 0 463 l 0 617 z "},"y":{"ha":540,"x_min":0,"x_max":463,"o":"m 0 617 l 154 617 l 154 154 l 309 154 l 309 617 l 463 617 l 463 -154 l 386 -154 l 386 -231 l 0 -231 l 0 -77 l 309 -77 l 309 0 l 77 0 l 77 77 l 0 77 l 0 617 z "},"z":{"ha":540,"x_min":0,"x_max":463,"o":"m 0 617 l 463 617 l 463 386 l 386 386 l 386 309 l 309 309 l 309 231 l 231 231 l 231 154 l 463 154 l 463 0 l 0 0 l 0 231 l 77 231 l 77 309 l 154 309 l 154 386 l 231 386 l 231 463 l 0 463 l 0 617 z "},"{":{"ha":463,"x_min":0,"x_max":386,"o":"m 154 849 l 386 849 l 386 694 l 231 694 l 231 386 l 154 386 l 154 309 l 231 309 l 231 0 l 386 0 l 386 -154 l 154 -154 l 154 -77 l 77 -77 l 77 309 l 0 309 l 0 463 l 77 463 l 77 772 l 154 772 l 154 849 z "},"|":{"ha":231,"x_min":0,"x_max":154,"o":"m 0 849 l 154 849 l 154 -154 l 0 -154 l 0 849 z "},"}":{"ha":463,"x_min":0,"x_max":386,"o":"m 0 849 l 231 849 l 231 772 l 309 772 l 309 463 l 386 463 l 386 309 l 309 309 l 309 -77 l 231 -77 l 231 -154 l 0 -154 l 0 0 l 154 0 l 154 309 l 231 309 l 231 386 l 154 386 l 154 694 l 0 694 l 0 849 z "},"~":{"ha":540,"x_min":0,"x_max":463,"o":"m 77 540 l 231 540 l 231 463 l 309 463 l 309 386 l 386 386 l 386 463 l 463 463 l 463 309 l 386 309 l 386 231 l 231 231 l 231 309 l 154 309 l 154 386 l 77 386 l 77 309 l 0 309 l 0 463 l 77 463 l 77 540 z "},"¡":{"ha":231,"x_min":0,"x_max":154,"o":"m 0 617 l 154 617 l 154 463 l 0 463 l 0 617 m 0 386 l 154 386 l 154 -231 l 0 -231 l 0 386 z "},"¢":{"ha":540,"x_min":0,"x_max":463,"o":"m 154 772 l 309 772 l 309 617 l 463 617 l 463 463 l 154 463 l 154 154 l 463 154 l 463 0 l 309 0 l 309 -154 l 154 -154 l 154 0 l 77 0 l 77 77 l 0 77 l 0 540 l 77 540 l 77 617 l 154 617 l 154 772 z "},"£":{"ha":617,"x_min":0,"x_max":540,"o":"m 154 849 l 463 849 l 463 772 l 540 772 l 540 617 l 386 617 l 386 694 l 231 694 l 231 463 l 463 463 l 463 309 l 231 309 l 231 154 l 540 154 l 540 0 l 0 0 l 0 154 l 77 154 l 77 309 l 0 309 l 0 463 l 77 463 l 77 772 l 154 772 l 154 849 z "},"¤":{"ha":694,"x_min":0,"x_max":617,"o":"m 0 772 l 154 772 l 154 694 l 463 694 l 463 772 l 617 772 l 617 617 l 540 617 l 540 309 l 617 309 l 617 154 l 463 154 l 463 231 l 154 231 l 154 154 l 0 154 l 0 309 l 77 309 l 77 617 l 0 617 l 0 772 m 231 540 l 231 386 l 386 386 l 386 540 l 231 540 z "},"¥":{"ha":540,"x_min":0,"x_max":463,"o":"m 0 849 l 154 849 l 154 617 l 309 617 l 309 849 l 463 849 l 463 540 l 386 540 l 386 463 l 309 463 l 309 386 l 463 386 l 463 309 l 309 309 l 309 231 l 463 231 l 463 154 l 309 154 l 309 0 l 154 0 l 154 154 l 0 154 l 0 231 l 154 231 l 154 309 l 0 309 l 0 386 l 154 386 l 154 463 l 77 463 l 77 540 l 0 540 l 0 849 z "},"¦":{"ha":231,"x_min":0,"x_max":154,"o":"m 0 849 l 154 849 l 154 463 l 0 463 l 0 849 m 0 231 l 154 231 l 154 -154 l 0 -154 l 0 231 z "},"§":{"ha":540,"x_min":0,"x_max":463,"o":"m 77 849 l 463 849 l 463 694 l 154 694 l 154 617 l 309 617 l 309 540 l 386 540 l 386 463 l 463 463 l 463 154 l 386 154 l 386 77 l 463 77 l 463 -154 l 386 -154 l 386 -231 l 0 -231 l 0 -77 l 309 -77 l 309 0 l 154 0 l 154 77 l 77 77 l 77 154 l 0 154 l 0 463 l 77 463 l 77 540 l 0 540 l 0 772 l 77 772 l 77 849 m 154 386 l 154 231 l 309 231 l 309 386 l 154 386 z "},"¨":{"ha":463,"x_min":0,"x_max":386,"o":"m 0 849 l 154 849 l 154 694 l 0 694 l 0 849 m 231 849 l 386 849 l 386 694 l 231 694 l 231 849 z "},"©":{"ha":772,"x_min":0,"x_max":694,"o":"m 154 849 l 540 849 l 540 772 l 617 772 l 617 694 l 694 694 l 694 154 l 617 154 l 617 77 l 540 77 l 540 0 l 154 0 l 154 77 l 77 77 l 77 154 l 0 154 l 0 694 l 77 694 l 77 772 l 154 772 l 154 849 m 231 694 l 231 617 l 154 617 l 154 231 l 231 231 l 231 154 l 463 154 l 463 231 l 309 231 l 309 309 l 231 309 l 231 540 l 309 540 l 309 617 l 463 617 l 463 694 l 231 694 m 463 617 l 463 540 l 309 540 l 309 309 l 463 309 l 463 231 l 540 231 l 540 617 l 463 617 m 309 617 l 463 617 l 463 540 l 309 540 l 309 617 m 231 540 l 309 540 l 309 309 l 231 309 l 231 540 m 309 309 l 463 309 l 463 231 l 309 231 l 309 309 z "},"ª":{"ha":309,"x_min":0,"x_max":231,"o":"m 0 849 l 154 849 l 154 772 l 0 772 l 0 849 m 154 772 l 231 772 l 231 463 l 77 463 l 77 540 l 154 540 l 154 617 l 77 617 l 77 694 l 154 694 l 154 772 m 0 617 l 77 617 l 77 540 l 0 540 l 0 617 z "},"«":{"ha":772,"x_min":0,"x_max":694,"o":"m 231 617 l 386 617 l 386 463 l 309 463 l 309 386 l 231 386 l 231 231 l 309 231 l 309 154 l 386 154 l 386 0 l 231 0 l 231 77 l 154 77 l 154 154 l 77 154 l 77 231 l 0 231 l 0 386 l 77 386 l 77 463 l 154 463 l 154 540 l 231 540 l 231 617 m 540 617 l 694 617 l 694 463 l 617 463 l 617 386 l 540 386 l 540 231 l 617 231 l 617 154 l 694 154 l 694 0 l 540 0 l 540 77 l 463 77 l 463 154 l 386 154 l 386 231 l 309 231 l 309 386 l 386 386 l 386 463 l 463 463 l 463 540 l 540 540 l 540 617 z "},"¬":{"ha":540,"x_min":0,"x_max":463,"o":"m 0 849 l 463 849 l 463 540 l 309 540 l 309 694 l 0 694 l 0 849 z "},"®":{"ha":772,"x_min":0,"x_max":694,"o":"m 154 849 l 540 849 l 540 772 l 617 772 l 617 694 l 694 694 l 694 154 l 617 154 l 617 77 l 540 77 l 540 0 l 154 0 l 154 77 l 77 77 l 77 154 l 0 154 l 0 694 l 77 694 l 77 772 l 154 772 l 154 849 m 231 694 l 231 617 l 386 617 l 386 540 l 463 540 l 463 463 l 386 463 l 386 386 l 463 386 l 463 231 l 540 231 l 540 617 l 463 617 l 463 694 l 231 694 m 154 617 l 154 231 l 231 231 l 231 617 l 154 617 m 231 617 l 386 617 l 386 540 l 309 540 l 309 463 l 386 463 l 386 386 l 309 386 l 309 231 l 231 231 l 231 617 m 309 540 l 309 463 l 386 463 l 386 540 l 309 540 m 309 386 l 309 231 l 231 231 l 231 154 l 463 154 l 463 231 l 386 231 l 386 386 l 309 386 m 386 540 l 463 540 l 463 463 l 386 463 l 386 540 m 386 386 l 463 386 l 463 231 l 386 231 l 386 386 z "},"°":{"ha":463,"x_min":0,"x_max":386,"o":"m 77 849 l 309 849 l 309 772 l 386 772 l 386 540 l 309 540 l 309 463 l 77 463 l 77 540 l 0 540 l 0 772 l 77 772 l 77 849 m 154 694 l 154 617 l 231 617 l 231 694 l 154 694 z "},"±":{"ha":540,"x_min":0,"x_max":463,"o":"m 154 617 l 309 617 l 309 463 l 463 463 l 463 309 l 309 309 l 309 154 l 463 154 l 463 0 l 0 0 l 0 154 l 154 154 l 154 309 l 0 309 l 0 463 l 154 463 l 154 617 z "},"¶":{"ha":694,"x_min":0,"x_max":617,"o":"m 77 849 l 617 849 l 617 -231 l 463 -231 l 463 694 l 386 694 l 386 -231 l 231 -231 l 231 386 l 77 386 l 77 463 l 0 463 l 0 772 l 77 772 l 77 849 z "},"º":{"ha":463,"x_min":0,"x_max":386,"o":"m 77 849 l 309 849 l 309 772 l 386 772 l 386 463 l 309 463 l 309 386 l 77 386 l 77 463 l 0 463 l 0 772 l 77 772 l 77 849 m 154 694 l 154 540 l 231 540 l 231 694 l 154 694 z "},"»":{"ha":772,"x_min":0,"x_max":694,"o":"m 0 617 l 154 617 l 154 540 l 231 540 l 231 463 l 309 463 l 309 386 l 386 386 l 386 231 l 309 231 l 309 154 l 231 154 l 231 77 l 154 77 l 154 0 l 0 0 l 0 154 l 77 154 l 77 231 l 154 231 l 154 386 l 77 386 l 77 463 l 0 463 l 0 617 m 309 617 l 463 617 l 463 540 l 540 540 l 540 463 l 617 463 l 617 386 l 694 386 l 694 231 l 617 231 l 617 154 l 540 154 l 540 77 l 463 77 l 463 0 l 309 0 l 309 154 l 386 154 l 386 231 l 463 231 l 463 386 l 386 386 l 386 463 l 309 463 l 309 617 z "},"¿":{"ha":540,"x_min":0,"x_max":463,"o":"m 154 849 l 309 849 l 309 694 l 154 694 l 154 849 m 154 617 l 309 617 l 309 386 l 231 386 l 231 309 l 154 309 l 154 154 l 309 154 l 309 231 l 463 231 l 463 77 l 386 77 l 386 0 l 77 0 l 77 77 l 0 77 l 0 386 l 77 386 l 77 463 l 154 463 l 154 617 z "},"À":{"ha":540,"x_min":0,"x_max":463,"o":"m 154 1157 l 309 1157 l 309 926 l 231 926 l 231 1003 l 154 1003 l 154 1157 m 77 849 l 386 849 l 386 772 l 463 772 l 463 0 l 309 0 l 309 309 l 154 309 l 154 0 l 0 0 l 0 772 l 77 772 l 77 849 m 154 694 l 154 463 l 309 463 l 309 694 l 154 694 z "},"Á":{"ha":540,"x_min":0,"x_max":463,"o":"m 154 1157 l 309 1157 l 309 1003 l 231 1003 l 231 926 l 154 926 l 154 1157 m 77 849 l 386 849 l 386 772 l 463 772 l 463 0 l 309 0 l 309 309 l 154 309 l 154 0 l 0 0 l 0 772 l 77 772 l 77 849 m 154 694 l 154 463 l 309 463 l 309 694 l 154 694 z "},"Â":{"ha":540,"x_min":0,"x_max":463,"o":"m 154 1157 l 309 1157 l 309 1080 l 386 1080 l 386 926 l 309 926 l 309 1003 l 154 1003 l 154 926 l 77 926 l 77 1080 l 154 1080 l 154 1157 m 77 849 l 386 849 l 386 772 l 463 772 l 463 0 l 309 0 l 309 309 l 154 309 l 154 0 l 0 0 l 0 772 l 77 772 l 77 849 m 154 694 l 154 463 l 309 463 l 309 694 l 154 694 z "},"Ã":{"ha":540,"x_min":0,"x_max":463,"o":"m 77 1157 l 231 1157 l 231 1080 l 386 1080 l 386 1157 l 463 1157 l 463 1003 l 386 1003 l 386 926 l 231 926 l 231 1003 l 77 1003 l 77 926 l 0 926 l 0 1080 l 77 1080 l 77 1157 m 77 849 l 386 849 l 386 772 l 463 772 l 463 0 l 309 0 l 309 309 l 154 309 l 154 0 l 0 0 l 0 772 l 77 772 l 77 849 m 154 694 l 154 463 l 309 463 l 309 694 l 154 694 z "},"Ä":{"ha":540,"x_min":0,"x_max":463,"o":"m 0 1080 l 154 1080 l 154 926 l 0 926 l 0 1080 m 309 1080 l 463 1080 l 463 926 l 309 926 l 309 1080 m 77 849 l 386 849 l 386 772 l 463 772 l 463 0 l 309 0 l 309 309 l 154 309 l 154 0 l 0 0 l 0 772 l 77 772 l 77 849 m 154 694 l 154 463 l 309 463 l 309 694 l 154 694 z "},"Å":{"ha":540,"x_min":0,"x_max":463,"o":"m 154 1157 l 386 1157 l 386 926 l 154 926 l 154 1157 m 231 1080 l 231 1003 l 309 1003 l 309 1080 l 231 1080 m 77 849 l 386 849 l 386 772 l 463 772 l 463 0 l 309 0 l 309 309 l 154 309 l 154 0 l 0 0 l 0 772 l 77 772 l 77 849 m 154 694 l 154 463 l 309 463 l 309 694 l 154 694 z "},"Æ":{"ha":849,"x_min":0,"x_max":772,"o":"m 77 849 l 772 849 l 772 694 l 463 694 l 463 540 l 694 540 l 694 386 l 463 386 l 463 154 l 772 154 l 772 0 l 309 0 l 309 309 l 154 309 l 154 0 l 0 0 l 0 772 l 77 772 l 77 849 m 154 694 l 154 463 l 309 463 l 309 694 l 154 694 z "},"Ç":{"ha":540,"x_min":0,"x_max":463,"o":"m 77 849 l 463 849 l 463 694 l 154 694 l 154 154 l 463 154 l 463 0 l 386 0 l 386 -154 l 154 -154 l 154 -77 l 309 -77 l 309 0 l 77 0 l 77 77 l 0 77 l 0 772 l 77 772 l 77 849 z "},"È":{"ha":540,"x_min":0,"x_max":463,"o":"m 154 1157 l 309 1157 l 309 926 l 231 926 l 231 1003 l 154 1003 l 154 1157 m 77 849 l 463 849 l 463 694 l 154 694 l 154 540 l 386 540 l 386 386 l 154 386 l 154 154 l 463 154 l 463 0 l 77 0 l 77 77 l 0 77 l 0 772 l 77 772 l 77 849 z "},"É":{"ha":540,"x_min":0,"x_max":463,"o":"m 154 1157 l 309 1157 l 309 1003 l 231 1003 l 231 926 l 154 926 l 154 1157 m 77 849 l 463 849 l 463 694 l 154 694 l 154 540 l 386 540 l 386 386 l 154 386 l 154 154 l 463 154 l 463 0 l 77 0 l 77 77 l 0 77 l 0 772 l 77 772 l 77 849 z "},"Ê":{"ha":540,"x_min":0,"x_max":463,"o":"m 154 1157 l 309 1157 l 309 1080 l 386 1080 l 386 926 l 309 926 l 309 1003 l 154 1003 l 154 926 l 77 926 l 77 1080 l 154 1080 l 154 1157 m 77 849 l 463 849 l 463 694 l 154 694 l 154 540 l 386 540 l 386 386 l 154 386 l 154 154 l 463 154 l 463 0 l 77 0 l 77 77 l 0 77 l 0 772 l 77 772 l 77 849 z "},"Ë":{"ha":540,"x_min":0,"x_max":463,"o":"m 0 1080 l 154 1080 l 154 926 l 0 926 l 0 1080 m 309 1080 l 463 1080 l 463 926 l 309 926 l 309 1080 m 77 849 l 463 849 l 463 694 l 154 694 l 154 540 l 386 540 l 386 386 l 154 386 l 154 154 l 463 154 l 463 0 l 77 0 l 77 77 l 0 77 l 0 772 l 77 772 l 77 849 z "},"Ì":{"ha":540,"x_min":0,"x_max":463,"o":"m 154 1157 l 309 1157 l 309 926 l 231 926 l 231 1003 l 154 1003 l 154 1157 m 0 849 l 463 849 l 463 694 l 309 694 l 309 154 l 463 154 l 463 0 l 0 0 l 0 154 l 154 154 l 154 694 l 0 694 l 0 849 z "},"Í":{"ha":540,"x_min":0,"x_max":463,"o":"m 154 1157 l 309 1157 l 309 1003 l 231 1003 l 231 926 l 154 926 l 154 1157 m 0 849 l 463 849 l 463 694 l 309 694 l 309 154 l 463 154 l 463 0 l 0 0 l 0 154 l 154 154 l 154 694 l 0 694 l 0 849 z "},"Î":{"ha":540,"x_min":0,"x_max":463,"o":"m 154 1157 l 309 1157 l 309 1080 l 386 1080 l 386 926 l 309 926 l 309 1003 l 154 1003 l 154 926 l 77 926 l 77 1080 l 154 1080 l 154 1157 m 0 849 l 463 849 l 463 694 l 309 694 l 309 154 l 463 154 l 463 0 l 0 0 l 0 154 l 154 154 l 154 694 l 0 694 l 0 849 z "},"Ï":{"ha":540,"x_min":0,"x_max":463,"o":"m 0 1080 l 154 1080 l 154 926 l 0 926 l 0 1080 m 309 1080 l 463 1080 l 463 926 l 309 926 l 309 1080 m 0 849 l 463 849 l 463 694 l 309 694 l 309 154 l 463 154 l 463 0 l 0 0 l 0 154 l 154 154 l 154 694 l 0 694 l 0 849 z "},"Ñ":{"ha":540,"x_min":0,"x_max":463,"o":"m 77 1157 l 231 1157 l 231 1080 l 386 1080 l 386 1157 l 463 1157 l 463 1003 l 386 1003 l 386 926 l 231 926 l 231 1003 l 77 1003 l 77 926 l 0 926 l 0 1080 l 77 1080 l 77 1157 m 0 849 l 386 849 l 386 772 l 463 772 l 463 0 l 309 0 l 309 694 l 154 694 l 154 0 l 0 0 l 0 849 z "},"Ò":{"ha":540,"x_min":0,"x_max":463,"o":"m 154 1157 l 309 1157 l 309 926 l 231 926 l 231 1003 l 154 1003 l 154 1157 m 77 849 l 386 849 l 386 772 l 463 772 l 463 77 l 386 77 l 386 0 l 77 0 l 77 77 l 0 77 l 0 772 l 77 772 l 77 849 m 154 694 l 154 154 l 309 154 l 309 694 l 154 694 z "},"Ó":{"ha":540,"x_min":0,"x_max":463,"o":"m 154 1157 l 309 1157 l 309 1003 l 231 1003 l 231 926 l 154 926 l 154 1157 m 77 849 l 386 849 l 386 772 l 463 772 l 463 77 l 386 77 l 386 0 l 77 0 l 77 77 l 0 77 l 0 772 l 77 772 l 77 849 m 154 694 l 154 154 l 309 154 l 309 694 l 154 694 z "},"Ô":{"ha":540,"x_min":0,"x_max":463,"o":"m 154 1157 l 309 1157 l 309 1080 l 386 1080 l 386 926 l 309 926 l 309 1003 l 154 1003 l 154 926 l 77 926 l 77 1080 l 154 1080 l 154 1157 m 77 849 l 386 849 l 386 772 l 463 772 l 463 77 l 386 77 l 386 0 l 77 0 l 77 77 l 0 77 l 0 772 l 77 772 l 77 849 m 154 694 l 154 154 l 309 154 l 309 694 l 154 694 z "},"Õ":{"ha":540,"x_min":0,"x_max":463,"o":"m 77 1157 l 231 1157 l 231 1080 l 386 1080 l 386 1157 l 463 1157 l 463 1003 l 386 1003 l 386 926 l 231 926 l 231 1003 l 77 1003 l 77 926 l 0 926 l 0 1080 l 77 1080 l 77 1157 m 77 849 l 386 849 l 386 772 l 463 772 l 463 77 l 386 77 l 386 0 l 77 0 l 77 77 l 0 77 l 0 772 l 77 772 l 77 849 m 154 694 l 154 154 l 309 154 l 309 694 l 154 694 z "},"Ö":{"ha":540,"x_min":0,"x_max":463,"o":"m 0 1080 l 154 1080 l 154 926 l 0 926 l 0 1080 m 309 1080 l 463 1080 l 463 926 l 309 926 l 309 1080 m 77 849 l 386 849 l 386 772 l 463 772 l 463 77 l 386 77 l 386 0 l 77 0 l 77 77 l 0 77 l 0 772 l 77 772 l 77 849 m 154 694 l 154 154 l 309 154 l 309 694 l 154 694 z "},"×":{"ha":463,"x_min":0,"x_max":386,"o":"m 0 540 l 154 540 l 154 463 l 231 463 l 231 540 l 386 540 l 386 386 l 309 386 l 309 309 l 386 309 l 386 154 l 231 154 l 231 231 l 154 231 l 154 154 l 0 154 l 0 309 l 77 309 l 77 386 l 0 386 l 0 540 z "},"Ø":{"ha":694,"x_min":0,"x_max":617,"o":"m 154 849 l 463 849 l 463 772 l 540 772 l 540 849 l 617 849 l 617 694 l 540 694 l 540 77 l 463 77 l 463 0 l 154 0 l 154 77 l 77 77 l 77 0 l 0 0 l 0 154 l 77 154 l 77 772 l 154 772 l 154 849 m 231 694 l 231 463 l 309 463 l 309 540 l 386 540 l 386 694 l 231 694 m 309 386 l 309 309 l 231 309 l 231 154 l 386 154 l 386 386 l 309 386 z "},"Ù":{"ha":540,"x_min":0,"x_max":463,"o":"m 154 1157 l 309 1157 l 309 926 l 231 926 l 231 1003 l 154 1003 l 154 1157 m 0 849 l 154 849 l 154 154 l 309 154 l 309 849 l 463 849 l 463 77 l 386 77 l 386 0 l 77 0 l 77 77 l 0 77 l 0 849 z "},"Ú":{"ha":540,"x_min":0,"x_max":463,"o":"m 154 1157 l 309 1157 l 309 1003 l 231 1003 l 231 926 l 154 926 l 154 1157 m 0 849 l 154 849 l 154 154 l 309 154 l 309 849 l 463 849 l 463 77 l 386 77 l 386 0 l 77 0 l 77 77 l 0 77 l 0 849 z "},"Û":{"ha":540,"x_min":0,"x_max":463,"o":"m 154 1157 l 309 1157 l 309 1080 l 386 1080 l 386 926 l 309 926 l 309 1003 l 154 1003 l 154 926 l 77 926 l 77 1080 l 154 1080 l 154 1157 m 0 849 l 154 849 l 154 154 l 309 154 l 309 849 l 463 849 l 463 77 l 386 77 l 386 0 l 77 0 l 77 77 l 0 77 l 0 849 z "},"Ü":{"ha":540,"x_min":0,"x_max":463,"o":"m 0 1080 l 154 1080 l 154 926 l 0 926 l 0 1080 m 309 1080 l 463 1080 l 463 926 l 309 926 l 309 1080 m 0 849 l 154 849 l 154 154 l 309 154 l 309 849 l 463 849 l 463 77 l 386 77 l 386 0 l 77 0 l 77 77 l 0 77 l 0 849 z "},"Ý":{"ha":540,"x_min":0,"x_max":463,"o":"m 154 1157 l 309 1157 l 309 1003 l 231 1003 l 231 926 l 154 926 l 154 1157 m 0 849 l 154 849 l 154 540 l 309 540 l 309 849 l 463 849 l 463 463 l 386 463 l 386 386 l 309 386 l 309 0 l 154 0 l 154 386 l 77 386 l 77 463 l 0 463 l 0 849 z "},"Þ":{"ha":540,"x_min":0,"x_max":463,"o":"m 0 849 l 154 849 l 154 694 l 386 694 l 386 617 l 463 617 l 463 231 l 386 231 l 386 154 l 154 154 l 154 0 l 0 0 l 0 849 m 154 540 l 154 309 l 309 309 l 309 540 l 154 540 z "},"ß":{"ha":617,"x_min":0,"x_max":540,"o":"m 0 849 l 386 849 l 386 772 l 463 772 l 463 540 l 386 540 l 386 463 l 463 463 l 463 386 l 540 386 l 540 77 l 463 77 l 463 0 l 231 0 l 231 154 l 386 154 l 386 309 l 309 309 l 309 386 l 231 386 l 231 540 l 309 540 l 309 694 l 154 694 l 154 0 l 0 0 l 0 849 z "},"à":{"ha":540,"x_min":0,"x_max":463,"o":"m 154 926 l 309 926 l 309 694 l 231 694 l 231 772 l 154 772 l 154 926 m 0 617 l 386 617 l 386 540 l 463 540 l 463 0 l 77 0 l 77 77 l 0 77 l 0 309 l 77 309 l 77 386 l 309 386 l 309 463 l 0 463 l 0 617 m 154 231 l 154 154 l 309 154 l 309 231 l 154 231 z "},"á":{"ha":540,"x_min":0,"x_max":463,"o":"m 154 926 l 309 926 l 309 772 l 231 772 l 231 694 l 154 694 l 154 926 m 0 617 l 386 617 l 386 540 l 463 540 l 463 0 l 77 0 l 77 77 l 0 77 l 0 309 l 77 309 l 77 386 l 309 386 l 309 463 l 0 463 l 0 617 m 154 231 l 154 154 l 309 154 l 309 231 l 154 231 z "},"â":{"ha":540,"x_min":0,"x_max":463,"o":"m 154 926 l 309 926 l 309 849 l 386 849 l 386 694 l 309 694 l 309 772 l 154 772 l 154 694 l 77 694 l 77 849 l 154 849 l 154 926 m 0 617 l 386 617 l 386 540 l 463 540 l 463 0 l 77 0 l 77 77 l 0 77 l 0 309 l 77 309 l 77 386 l 309 386 l 309 463 l 0 463 l 0 617 m 154 231 l 154 154 l 309 154 l 309 231 l 154 231 z "},"ã":{"ha":540,"x_min":0,"x_max":463,"o":"m 77 926 l 231 926 l 231 849 l 386 849 l 386 926 l 463 926 l 463 772 l 386 772 l 386 694 l 231 694 l 231 772 l 77 772 l 77 694 l 0 694 l 0 849 l 77 849 l 77 926 m 0 617 l 386 617 l 386 540 l 463 540 l 463 0 l 77 0 l 77 77 l 0 77 l 0 309 l 77 309 l 77 386 l 309 386 l 309 463 l 0 463 l 0 617 m 154 231 l 154 154 l 309 154 l 309 231 l 154 231 z "},"ä":{"ha":540,"x_min":0,"x_max":463,"o":"m 0 849 l 154 849 l 154 694 l 0 694 l 0 849 m 309 849 l 463 849 l 463 694 l 309 694 l 309 849 m 0 617 l 386 617 l 386 540 l 463 540 l 463 0 l 77 0 l 77 77 l 0 77 l 0 309 l 77 309 l 77 386 l 309 386 l 309 463 l 0 463 l 0 617 m 154 231 l 154 154 l 309 154 l 309 231 l 154 231 z "},"å":{"ha":540,"x_min":0,"x_max":463,"o":"m 154 926 l 386 926 l 386 694 l 154 694 l 154 926 m 231 849 l 231 772 l 309 772 l 309 849 l 231 849 m 0 617 l 386 617 l 386 540 l 463 540 l 463 0 l 77 0 l 77 77 l 0 77 l 0 309 l 77 309 l 77 386 l 309 386 l 309 463 l 0 463 l 0 617 m 154 231 l 154 154 l 309 154 l 309 231 l 154 231 z "},"æ":{"ha":849,"x_min":0,"x_max":772,"o":"m 0 617 l 694 617 l 694 540 l 772 540 l 772 231 l 463 231 l 463 154 l 772 154 l 772 0 l 77 0 l 77 77 l 0 77 l 0 309 l 77 309 l 77 386 l 309 386 l 309 463 l 0 463 l 0 617 m 463 463 l 463 386 l 617 386 l 617 463 l 463 463 m 154 231 l 154 154 l 309 154 l 309 231 l 154 231 z "},"ç":{"ha":540,"x_min":0,"x_max":463,"o":"m 77 617 l 463 617 l 463 463 l 154 463 l 154 154 l 463 154 l 463 0 l 386 0 l 386 -154 l 154 -154 l 154 -77 l 309 -77 l 309 0 l 77 0 l 77 77 l 0 77 l 0 540 l 77 540 l 77 617 z "},"è":{"ha":540,"x_min":0,"x_max":463,"o":"m 154 926 l 309 926 l 309 694 l 231 694 l 231 772 l 154 772 l 154 926 m 77 617 l 386 617 l 386 540 l 463 540 l 463 231 l 154 231 l 154 154 l 463 154 l 463 0 l 77 0 l 77 77 l 0 77 l 0 540 l 77 540 l 77 617 m 154 463 l 154 386 l 309 386 l 309 463 l 154 463 z "},"é":{"ha":540,"x_min":0,"x_max":463,"o":"m 154 926 l 309 926 l 309 772 l 231 772 l 231 694 l 154 694 l 154 926 m 77 617 l 386 617 l 386 540 l 463 540 l 463 231 l 154 231 l 154 154 l 463 154 l 463 0 l 77 0 l 77 77 l 0 77 l 0 540 l 77 540 l 77 617 m 154 463 l 154 386 l 309 386 l 309 463 l 154 463 z "},"ê":{"ha":540,"x_min":0,"x_max":463,"o":"m 154 926 l 309 926 l 309 849 l 386 849 l 386 694 l 309 694 l 309 772 l 154 772 l 154 694 l 77 694 l 77 849 l 154 849 l 154 926 m 77 617 l 386 617 l 386 540 l 463 540 l 463 231 l 154 231 l 154 154 l 463 154 l 463 0 l 77 0 l 77 77 l 0 77 l 0 540 l 77 540 l 77 617 m 154 463 l 154 386 l 309 386 l 309 463 l 154 463 z "},"ë":{"ha":540,"x_min":0,"x_max":463,"o":"m 0 849 l 154 849 l 154 694 l 0 694 l 0 849 m 309 849 l 463 849 l 463 694 l 309 694 l 309 849 m 77 617 l 386 617 l 386 540 l 463 540 l 463 231 l 154 231 l 154 154 l 463 154 l 463 0 l 77 0 l 77 77 l 0 77 l 0 540 l 77 540 l 77 617 m 154 463 l 154 386 l 309 386 l 309 463 l 154 463 z "},"ì":{"ha":231,"x_min":0,"x_max":154,"o":"m 0 926 l 154 926 l 154 694 l 77 694 l 77 772 l 0 772 l 0 926 m 0 617 l 154 617 l 154 0 l 0 0 l 0 617 z "},"í":{"ha":231,"x_min":0,"x_max":154,"o":"m 0 926 l 154 926 l 154 772 l 77 772 l 77 694 l 0 694 l 0 926 m 0 617 l 154 617 l 154 0 l 0 0 l 0 617 z "},"î":{"ha":386,"x_min":0,"x_max":309,"o":"m 77 926 l 231 926 l 231 849 l 309 849 l 309 694 l 231 694 l 231 772 l 77 772 l 77 694 l 0 694 l 0 849 l 77 849 l 77 926 m 77 617 l 231 617 l 231 0 l 77 0 l 77 617 z "},"ï":{"ha":540,"x_min":0,"x_max":463,"o":"m 0 849 l 154 849 l 154 694 l 0 694 l 0 849 m 309 849 l 463 849 l 463 694 l 309 694 l 309 849 m 154 617 l 309 617 l 309 0 l 154 0 l 154 617 z "},"ñ":{"ha":540,"x_min":0,"x_max":463,"o":"m 77 926 l 231 926 l 231 849 l 386 849 l 386 926 l 463 926 l 463 772 l 386 772 l 386 694 l 231 694 l 231 772 l 77 772 l 77 694 l 0 694 l 0 849 l 77 849 l 77 926 m 0 617 l 386 617 l 386 540 l 463 540 l 463 0 l 309 0 l 309 463 l 154 463 l 154 0 l 0 0 l 0 617 z "},"ò":{"ha":540,"x_min":0,"x_max":463,"o":"m 154 926 l 309 926 l 309 694 l 231 694 l 231 772 l 154 772 l 154 926 m 77 617 l 386 617 l 386 540 l 463 540 l 463 77 l 386 77 l 386 0 l 77 0 l 77 77 l 0 77 l 0 540 l 77 540 l 77 617 m 154 463 l 154 154 l 309 154 l 309 463 l 154 463 z "},"ó":{"ha":540,"x_min":0,"x_max":463,"o":"m 154 926 l 309 926 l 309 772 l 231 772 l 231 694 l 154 694 l 154 926 m 77 617 l 386 617 l 386 540 l 463 540 l 463 77 l 386 77 l 386 0 l 77 0 l 77 77 l 0 77 l 0 540 l 77 540 l 77 617 m 154 463 l 154 154 l 309 154 l 309 463 l 154 463 z "},"ô":{"ha":540,"x_min":0,"x_max":463,"o":"m 154 926 l 309 926 l 309 849 l 386 849 l 386 694 l 309 694 l 309 772 l 154 772 l 154 694 l 77 694 l 77 849 l 154 849 l 154 926 m 77 617 l 386 617 l 386 540 l 463 540 l 463 77 l 386 77 l 386 0 l 77 0 l 77 77 l 0 77 l 0 540 l 77 540 l 77 617 m 154 463 l 154 154 l 309 154 l 309 463 l 154 463 z "},"õ":{"ha":540,"x_min":0,"x_max":463,"o":"m 77 926 l 231 926 l 231 849 l 386 849 l 386 926 l 463 926 l 463 772 l 386 772 l 386 694 l 231 694 l 231 772 l 77 772 l 77 694 l 0 694 l 0 849 l 77 849 l 77 926 m 77 617 l 386 617 l 386 540 l 463 540 l 463 77 l 386 77 l 386 0 l 77 0 l 77 77 l 0 77 l 0 540 l 77 540 l 77 617 m 154 463 l 154 154 l 309 154 l 309 463 l 154 463 z "},"ö":{"ha":540,"x_min":0,"x_max":463,"o":"m 0 849 l 154 849 l 154 694 l 0 694 l 0 849 m 309 849 l 463 849 l 463 694 l 309 694 l 309 849 m 77 617 l 386 617 l 386 540 l 463 540 l 463 77 l 386 77 l 386 0 l 77 0 l 77 77 l 0 77 l 0 540 l 77 540 l 77 617 m 154 463 l 154 154 l 309 154 l 309 463 l 154 463 z "},"÷":{"ha":540,"x_min":0,"x_max":463,"o":"m 154 694 l 309 694 l 309 540 l 154 540 l 154 694 m 0 463 l 463 463 l 463 309 l 0 309 l 0 463 m 154 231 l 309 231 l 309 77 l 154 77 l 154 231 z "},"ø":{"ha":694,"x_min":0,"x_max":617,"o":"m 154 617 l 463 617 l 463 540 l 540 540 l 540 617 l 617 617 l 617 463 l 540 463 l 540 77 l 463 77 l 463 0 l 154 0 l 154 77 l 77 77 l 77 0 l 0 0 l 0 154 l 77 154 l 77 540 l 154 540 l 154 617 m 231 463 l 231 309 l 309 309 l 309 386 l 386 386 l 386 463 l 231 463 m 309 309 l 309 231 l 231 231 l 231 154 l 386 154 l 386 309 l 309 309 z "},"ù":{"ha":540,"x_min":0,"x_max":463,"o":"m 154 926 l 309 926 l 309 694 l 231 694 l 231 772 l 154 772 l 154 926 m 0 617 l 154 617 l 154 154 l 309 154 l 309 617 l 463 617 l 463 77 l 386 77 l 386 0 l 77 0 l 77 77 l 0 77 l 0 617 z "},"ú":{"ha":540,"x_min":0,"x_max":463,"o":"m 154 926 l 309 926 l 309 772 l 231 772 l 231 694 l 154 694 l 154 926 m 0 617 l 154 617 l 154 154 l 309 154 l 309 617 l 463 617 l 463 77 l 386 77 l 386 0 l 77 0 l 77 77 l 0 77 l 0 617 z "},"û":{"ha":540,"x_min":0,"x_max":463,"o":"m 154 926 l 309 926 l 309 849 l 386 849 l 386 694 l 309 694 l 309 772 l 154 772 l 154 694 l 77 694 l 77 849 l 154 849 l 154 926 m 0 617 l 154 617 l 154 154 l 309 154 l 309 617 l 463 617 l 463 77 l 386 77 l 386 0 l 77 0 l 77 77 l 0 77 l 0 617 z "},"ü":{"ha":540,"x_min":0,"x_max":463,"o":"m 0 849 l 154 849 l 154 694 l 0 694 l 0 849 m 309 849 l 463 849 l 463 694 l 309 694 l 309 849 m 0 617 l 154 617 l 154 154 l 309 154 l 309 617 l 463 617 l 463 77 l 386 77 l 386 0 l 77 0 l 77 77 l 0 77 l 0 617 z "},"ý":{"ha":540,"x_min":0,"x_max":463,"o":"m 154 926 l 309 926 l 309 772 l 231 772 l 231 694 l 154 694 l 154 926 m 0 617 l 154 617 l 154 154 l 309 154 l 309 617 l 463 617 l 463 -154 l 386 -154 l 386 -231 l 0 -231 l 0 -77 l 309 -77 l 309 0 l 77 0 l 77 77 l 0 77 l 0 617 z "},"þ":{"ha":540,"x_min":0,"x_max":463,"o":"m 0 849 l 154 849 l 154 617 l 386 617 l 386 540 l 463 540 l 463 77 l 386 77 l 386 0 l 154 0 l 154 -154 l 0 -154 l 0 849 m 154 463 l 154 154 l 309 154 l 309 463 l 154 463 z "},"ÿ":{"ha":540,"x_min":0,"x_max":463,"o":"m 0 849 l 154 849 l 154 694 l 0 694 l 0 849 m 309 849 l 463 849 l 463 694 l 309 694 l 309 849 m 0 617 l 154 617 l 154 154 l 309 154 l 309 617 l 463 617 l 463 -154 l 386 -154 l 386 -231 l 0 -231 l 0 -77 l 309 -77 l 309 0 l 77 0 l 77 77 l 0 77 l 0 617 z "},"Ā":{"ha":540,"x_min":0,"x_max":463,"o":"m 77 1080 l 386 1080 l 386 926 l 77 926 l 77 1080 m 77 849 l 386 849 l 386 772 l 463 772 l 463 0 l 309 0 l 309 309 l 154 309 l 154 0 l 0 0 l 0 772 l 77 772 l 77 849 m 154 694 l 154 463 l 309 463 l 309 694 l 154 694 z "},"ā":{"ha":540,"x_min":0,"x_max":463,"o":"m 77 849 l 386 849 l 386 694 l 77 694 l 77 849 m 0 617 l 386 617 l 386 540 l 463 540 l 463 0 l 77 0 l 77 77 l 0 77 l 0 309 l 77 309 l 77 386 l 309 386 l 309 463 l 0 463 l 0 617 m 154 231 l 154 154 l 309 154 l 309 231 l 154 231 z "},"Ă":{"ha":540,"x_min":0,"x_max":463,"o":"m 77 1157 l 154 1157 l 154 1080 l 309 1080 l 309 1157 l 386 1157 l 386 1003 l 309 1003 l 309 926 l 154 926 l 154 1003 l 77 1003 l 77 1157 m 77 849 l 386 849 l 386 772 l 463 772 l 463 0 l 309 0 l 309 309 l 154 309 l 154 0 l 0 0 l 0 772 l 77 772 l 77 849 m 154 694 l 154 463 l 309 463 l 309 694 l 154 694 z "},"ă":{"ha":540,"x_min":0,"x_max":463,"o":"m 77 926 l 154 926 l 154 849 l 309 849 l 309 926 l 386 926 l 386 772 l 309 772 l 309 694 l 154 694 l 154 772 l 77 772 l 77 926 m 0 617 l 386 617 l 386 540 l 463 540 l 463 0 l 77 0 l 77 77 l 0 77 l 0 309 l 77 309 l 77 386 l 309 386 l 309 463 l 0 463 l 0 617 m 154 231 l 154 154 l 309 154 l 309 231 l 154 231 z "},"Ą":{"ha":617,"x_min":0,"x_max":540,"o":"m 77 849 l 386 849 l 386 772 l 463 772 l 463 0 l 386 0 l 386 -77 l 540 -77 l 540 -154 l 309 -154 l 309 309 l 154 309 l 154 0 l 0 0 l 0 772 l 77 772 l 77 849 m 154 694 l 154 463 l 309 463 l 309 694 l 154 694 z "},"ą":{"ha":617,"x_min":0,"x_max":540,"o":"m 0 617 l 386 617 l 386 540 l 463 540 l 463 0 l 386 0 l 386 -77 l 540 -77 l 540 -154 l 309 -154 l 309 0 l 77 0 l 77 77 l 0 77 l 0 309 l 77 309 l 77 386 l 309 386 l 309 463 l 0 463 l 0 617 m 154 231 l 154 154 l 309 154 l 309 231 l 154 231 z "},"Ć":{"ha":540,"x_min":0,"x_max":463,"o":"m 154 1157 l 309 1157 l 309 1003 l 231 1003 l 231 926 l 154 926 l 154 1157 m 77 849 l 463 849 l 463 694 l 154 694 l 154 154 l 463 154 l 463 0 l 77 0 l 77 77 l 0 77 l 0 772 l 77 772 l 77 849 z "},"ć":{"ha":540,"x_min":0,"x_max":463,"o":"m 154 926 l 309 926 l 309 772 l 231 772 l 231 694 l 154 694 l 154 926 m 77 617 l 463 617 l 463 463 l 154 463 l 154 154 l 463 154 l 463 0 l 77 0 l 77 77 l 0 77 l 0 540 l 77 540 l 77 617 z "},"Đ":{"ha":617,"x_min":0,"x_max":540,"o":"m 77 849 l 463 849 l 463 772 l 540 772 l 540 77 l 463 77 l 463 0 l 77 0 l 77 386 l 0 386 l 0 463 l 77 463 l 77 849 m 231 694 l 231 463 l 309 463 l 309 386 l 231 386 l 231 154 l 386 154 l 386 694 l 231 694 z "},"đ":{"ha":617,"x_min":0,"x_max":540,"o":"m 309 849 l 463 849 l 463 772 l 540 772 l 540 694 l 463 694 l 463 77 l 386 77 l 386 0 l 77 0 l 77 77 l 0 77 l 0 540 l 77 540 l 77 617 l 309 617 l 309 694 l 231 694 l 231 772 l 309 772 l 309 849 m 154 463 l 154 154 l 309 154 l 309 463 l 154 463 z "},"Ē":{"ha":540,"x_min":0,"x_max":463,"o":"m 77 1080 l 386 1080 l 386 926 l 77 926 l 77 1080 m 77 849 l 463 849 l 463 694 l 154 694 l 154 540 l 386 540 l 386 386 l 154 386 l 154 154 l 463 154 l 463 0 l 77 0 l 77 77 l 0 77 l 0 772 l 77 772 l 77 849 z "},"ē":{"ha":540,"x_min":0,"x_max":463,"o":"m 77 849 l 386 849 l 386 694 l 77 694 l 77 849 m 77 617 l 386 617 l 386 540 l 463 540 l 463 231 l 154 231 l 154 154 l 463 154 l 463 0 l 77 0 l 77 77 l 0 77 l 0 540 l 77 540 l 77 617 m 154 463 l 154 386 l 309 386 l 309 463 l 154 463 z "},"Ĕ":{"ha":540,"x_min":0,"x_max":463,"o":"m 77 1157 l 154 1157 l 154 1080 l 309 1080 l 309 1157 l 386 1157 l 386 1003 l 309 1003 l 309 926 l 154 926 l 154 1003 l 77 1003 l 77 1157 m 77 849 l 463 849 l 463 694 l 154 694 l 154 540 l 386 540 l 386 386 l 154 386 l 154 154 l 463 154 l 463 0 l 77 0 l 77 77 l 0 77 l 0 772 l 77 772 l 77 849 z "},"ĕ":{"ha":540,"x_min":0,"x_max":463,"o":"m 77 926 l 154 926 l 154 849 l 309 849 l 309 926 l 386 926 l 386 772 l 309 772 l 309 694 l 154 694 l 154 772 l 77 772 l 77 926 m 77 617 l 386 617 l 386 540 l 463 540 l 463 231 l 154 231 l 154 154 l 463 154 l 463 0 l 77 0 l 77 77 l 0 77 l 0 540 l 77 540 l 77 617 m 154 463 l 154 386 l 309 386 l 309 463 l 154 463 z "},"Ę":{"ha":617,"x_min":0,"x_max":540,"o":"m 77 849 l 463 849 l 463 694 l 154 694 l 154 540 l 386 540 l 386 386 l 154 386 l 154 154 l 463 154 l 463 0 l 386 0 l 386 -77 l 540 -77 l 540 -154 l 309 -154 l 309 0 l 77 0 l 77 77 l 0 77 l 0 772 l 77 772 l 77 849 z "},"ę":{"ha":617,"x_min":0,"x_max":540,"o":"m 77 617 l 386 617 l 386 540 l 463 540 l 463 231 l 154 231 l 154 154 l 463 154 l 463 0 l 386 0 l 386 -77 l 540 -77 l 540 -154 l 309 -154 l 309 0 l 77 0 l 77 77 l 0 77 l 0 540 l 77 540 l 77 617 m 154 463 l 154 386 l 309 386 l 309 463 l 154 463 z "},"Ğ":{"ha":540,"x_min":0,"x_max":463,"o":"m 77 1157 l 154 1157 l 154 1080 l 309 1080 l 309 1157 l 386 1157 l 386 1003 l 309 1003 l 309 926 l 154 926 l 154 1003 l 77 1003 l 77 1157 m 77 849 l 463 849 l 463 694 l 154 694 l 154 154 l 309 154 l 309 386 l 231 386 l 231 540 l 463 540 l 463 77 l 386 77 l 386 0 l 77 0 l 77 77 l 0 77 l 0 772 l 77 772 l 77 849 z "},"ğ":{"ha":540,"x_min":0,"x_max":463,"o":"m 77 926 l 154 926 l 154 849 l 309 849 l 309 926 l 386 926 l 386 772 l 309 772 l 309 694 l 154 694 l 154 772 l 77 772 l 77 926 m 77 617 l 386 617 l 386 540 l 463 540 l 463 -154 l 386 -154 l 386 -231 l 0 -231 l 0 -77 l 309 -77 l 309 0 l 77 0 l 77 77 l 0 77 l 0 540 l 77 540 l 77 617 m 154 463 l 154 154 l 309 154 l 309 463 l 154 463 z "},"Ī":{"ha":540,"x_min":0,"x_max":463,"o":"m 77 1080 l 386 1080 l 386 926 l 77 926 l 77 1080 m 0 849 l 463 849 l 463 694 l 309 694 l 309 154 l 463 154 l 463 0 l 0 0 l 0 154 l 154 154 l 154 694 l 0 694 l 0 849 z "},"ī":{"ha":386,"x_min":0,"x_max":309,"o":"m 0 849 l 309 849 l 309 694 l 0 694 l 0 849 m 77 617 l 231 617 l 231 0 l 77 0 l 77 617 z "},"Ĭ":{"ha":540,"x_min":0,"x_max":463,"o":"m 77 1157 l 154 1157 l 154 1080 l 309 1080 l 309 1157 l 386 1157 l 386 1003 l 309 1003 l 309 926 l 154 926 l 154 1003 l 77 1003 l 77 1157 m 0 849 l 463 849 l 463 694 l 309 694 l 309 154 l 463 154 l 463 0 l 0 0 l 0 154 l 154 154 l 154 694 l 0 694 l 0 849 z "},"ĭ":{"ha":386,"x_min":0,"x_max":309,"o":"m 0 926 l 77 926 l 77 849 l 231 849 l 231 926 l 309 926 l 309 772 l 231 772 l 231 694 l 77 694 l 77 772 l 0 772 l 0 926 m 77 617 l 231 617 l 231 0 l 77 0 l 77 617 z "},"İ":{"ha":540,"x_min":0,"x_max":463,"o":"m 154 1080 l 309 1080 l 309 926 l 154 926 l 154 1080 m 0 849 l 463 849 l 463 694 l 309 694 l 309 154 l 463 154 l 463 0 l 0 0 l 0 154 l 154 154 l 154 694 l 0 694 l 0 849 z "},"ı":{"ha":231,"x_min":0,"x_max":154,"o":"m 0 617 l 154 617 l 154 0 l 0 0 l 0 617 z "},"Ł":{"ha":694,"x_min":0,"x_max":617,"o":"m 154 849 l 309 849 l 309 540 l 386 540 l 386 463 l 309 463 l 309 154 l 617 154 l 617 0 l 231 0 l 231 77 l 154 77 l 154 309 l 77 309 l 77 386 l 154 386 l 154 849 m 386 617 l 463 617 l 463 540 l 386 540 l 386 617 m 0 309 l 77 309 l 77 231 l 0 231 l 0 309 z "},"ł":{"ha":540,"x_min":0,"x_max":463,"o":"m 154 849 l 309 849 l 309 540 l 386 540 l 386 463 l 309 463 l 309 0 l 154 0 l 154 309 l 77 309 l 77 386 l 154 386 l 154 849 m 386 617 l 463 617 l 463 540 l 386 540 l 386 617 m 0 309 l 77 309 l 77 231 l 0 231 l 0 309 z "},"Ń":{"ha":540,"x_min":0,"x_max":463,"o":"m 154 1157 l 309 1157 l 309 1003 l 231 1003 l 231 926 l 154 926 l 154 1157 m 0 849 l 386 849 l 386 772 l 463 772 l 463 0 l 309 0 l 309 694 l 154 694 l 154 0 l 0 0 l 0 849 z "},"ń":{"ha":540,"x_min":0,"x_max":463,"o":"m 154 926 l 309 926 l 309 772 l 231 772 l 231 694 l 154 694 l 154 926 m 0 617 l 386 617 l 386 540 l 463 540 l 463 0 l 309 0 l 309 463 l 154 463 l 154 0 l 0 0 l 0 617 z "},"Ō":{"ha":540,"x_min":0,"x_max":463,"o":"m 77 1080 l 386 1080 l 386 926 l 77 926 l 77 1080 m 77 849 l 386 849 l 386 772 l 463 772 l 463 77 l 386 77 l 386 0 l 77 0 l 77 77 l 0 77 l 0 772 l 77 772 l 77 849 m 154 694 l 154 154 l 309 154 l 309 694 l 154 694 z "},"ō":{"ha":540,"x_min":0,"x_max":463,"o":"m 77 849 l 386 849 l 386 694 l 77 694 l 77 849 m 77 617 l 386 617 l 386 540 l 463 540 l 463 77 l 386 77 l 386 0 l 77 0 l 77 77 l 0 77 l 0 540 l 77 540 l 77 617 m 154 463 l 154 154 l 309 154 l 309 463 l 154 463 z "},"Ŏ":{"ha":540,"x_min":0,"x_max":463,"o":"m 77 1157 l 154 1157 l 154 1080 l 309 1080 l 309 1157 l 386 1157 l 386 1003 l 309 1003 l 309 926 l 154 926 l 154 1003 l 77 1003 l 77 1157 m 77 849 l 386 849 l 386 772 l 463 772 l 463 77 l 386 77 l 386 0 l 77 0 l 77 77 l 0 77 l 0 772 l 77 772 l 77 849 m 154 694 l 154 154 l 309 154 l 309 694 l 154 694 z "},"ŏ":{"ha":540,"x_min":0,"x_max":463,"o":"m 77 926 l 154 926 l 154 849 l 309 849 l 309 926 l 386 926 l 386 772 l 309 772 l 309 694 l 154 694 l 154 772 l 77 772 l 77 926 m 77 617 l 386 617 l 386 540 l 463 540 l 463 77 l 386 77 l 386 0 l 77 0 l 77 77 l 0 77 l 0 540 l 77 540 l 77 617 m 154 463 l 154 154 l 309 154 l 309 463 l 154 463 z "},"Œ":{"ha":849,"x_min":0,"x_max":772,"o":"m 77 849 l 772 849 l 772 694 l 463 694 l 463 540 l 694 540 l 694 386 l 463 386 l 463 154 l 772 154 l 772 0 l 77 0 l 77 77 l 0 77 l 0 772 l 77 772 l 77 849 m 154 694 l 154 154 l 309 154 l 309 694 l 154 694 z "},"œ":{"ha":849,"x_min":0,"x_max":772,"o":"m 77 617 l 694 617 l 694 540 l 772 540 l 772 231 l 463 231 l 463 154 l 772 154 l 772 0 l 77 0 l 77 77 l 0 77 l 0 540 l 77 540 l 77 617 m 154 463 l 154 154 l 309 154 l 309 463 l 154 463 m 463 463 l 463 386 l 617 386 l 617 463 l 463 463 z "},"Ś":{"ha":540,"x_min":0,"x_max":463,"o":"m 154 1157 l 309 1157 l 309 1003 l 231 1003 l 231 926 l 154 926 l 154 1157 m 77 849 l 463 849 l 463 694 l 154 694 l 154 540 l 386 540 l 386 463 l 463 463 l 463 77 l 386 77 l 386 0 l 0 0 l 0 154 l 309 154 l 309 386 l 77 386 l 77 463 l 0 463 l 0 772 l 77 772 l 77 849 z "},"ś":{"ha":540,"x_min":0,"x_max":463,"o":"m 154 926 l 309 926 l 309 772 l 231 772 l 231 694 l 154 694 l 154 926 m 77 617 l 463 617 l 463 463 l 154 463 l 154 386 l 386 386 l 386 309 l 463 309 l 463 77 l 386 77 l 386 0 l 0 0 l 0 154 l 309 154 l 309 231 l 77 231 l 77 309 l 0 309 l 0 540 l 77 540 l 77 617 z "},"Ş":{"ha":540,"x_min":0,"x_max":463,"o":"m 77 849 l 463 849 l 463 694 l 154 694 l 154 540 l 386 540 l 386 463 l 463 463 l 463 77 l 386 77 l 386 0 l 309 0 l 309 -154 l 77 -154 l 77 -77 l 231 -77 l 231 0 l 0 0 l 0 154 l 309 154 l 309 386 l 77 386 l 77 463 l 0 463 l 0 772 l 77 772 l 77 849 z "},"ş":{"ha":540,"x_min":0,"x_max":463,"o":"m 77 617 l 463 617 l 463 463 l 154 463 l 154 386 l 386 386 l 386 309 l 463 309 l 463 77 l 386 77 l 386 0 l 309 0 l 309 -154 l 77 -154 l 77 -77 l 231 -77 l 231 0 l 0 0 l 0 154 l 309 154 l 309 231 l 77 231 l 77 309 l 0 309 l 0 540 l 77 540 l 77 617 z "},"Ū":{"ha":540,"x_min":0,"x_max":463,"o":"m 77 1080 l 386 1080 l 386 926 l 77 926 l 77 1080 m 0 849 l 154 849 l 154 154 l 309 154 l 309 849 l 463 849 l 463 77 l 386 77 l 386 0 l 77 0 l 77 77 l 0 77 l 0 849 z "},"ū":{"ha":540,"x_min":0,"x_max":463,"o":"m 77 849 l 386 849 l 386 694 l 77 694 l 77 849 m 0 617 l 154 617 l 154 154 l 309 154 l 309 617 l 463 617 l 463 77 l 386 77 l 386 0 l 77 0 l 77 77 l 0 77 l 0 617 z "},"Ŭ":{"ha":540,"x_min":0,"x_max":463,"o":"m 77 1157 l 154 1157 l 154 1080 l 309 1080 l 309 1157 l 386 1157 l 386 1003 l 309 1003 l 309 926 l 154 926 l 154 1003 l 77 1003 l 77 1157 m 0 849 l 154 849 l 154 154 l 309 154 l 309 849 l 463 849 l 463 77 l 386 77 l 386 0 l 77 0 l 77 77 l 0 77 l 0 849 z "},"ŭ":{"ha":540,"x_min":0,"x_max":463,"o":"m 77 926 l 154 926 l 154 849 l 309 849 l 309 926 l 386 926 l 386 772 l 309 772 l 309 694 l 154 694 l 154 772 l 77 772 l 77 926 m 0 617 l 154 617 l 154 154 l 309 154 l 309 617 l 463 617 l 463 77 l 386 77 l 386 0 l 77 0 l 77 77 l 0 77 l 0 617 z "},"Ÿ":{"ha":540,"x_min":0,"x_max":463,"o":"m 0 1080 l 154 1080 l 154 926 l 0 926 l 0 1080 m 309 1080 l 463 1080 l 463 926 l 309 926 l 309 1080 m 0 849 l 154 849 l 154 540 l 309 540 l 309 849 l 463 849 l 463 463 l 386 463 l 386 386 l 309 386 l 309 0 l 154 0 l 154 386 l 77 386 l 77 463 l 0 463 l 0 849 z "},"Ź":{"ha":540,"x_min":0,"x_max":463,"o":"m 154 1157 l 309 1157 l 309 1003 l 231 1003 l 231 926 l 154 926 l 154 1157 m 0 849 l 463 849 l 463 617 l 386 617 l 386 463 l 309 463 l 309 309 l 231 309 l 231 154 l 463 154 l 463 0 l 0 0 l 0 231 l 77 231 l 77 386 l 154 386 l 154 540 l 231 540 l 231 694 l 0 694 l 0 849 z "},"ź":{"ha":540,"x_min":0,"x_max":463,"o":"m 154 926 l 309 926 l 309 772 l 231 772 l 231 694 l 154 694 l 154 926 m 0 617 l 463 617 l 463 386 l 386 386 l 386 309 l 309 309 l 309 231 l 231 231 l 231 154 l 463 154 l 463 0 l 0 0 l 0 231 l 77 231 l 77 309 l 154 309 l 154 386 l 231 386 l 231 463 l 0 463 l 0 617 z "},"Ż":{"ha":540,"x_min":0,"x_max":463,"o":"m 154 1080 l 309 1080 l 309 926 l 154 926 l 154 1080 m 0 849 l 463 849 l 463 617 l 386 617 l 386 463 l 309 463 l 309 309 l 231 309 l 231 154 l 463 154 l 463 0 l 0 0 l 0 231 l 77 231 l 77 386 l 154 386 l 154 540 l 231 540 l 231 694 l 0 694 l 0 849 z "},"ż":{"ha":540,"x_min":0,"x_max":463,"o":"m 154 849 l 309 849 l 309 694 l 154 694 l 154 849 m 0 617 l 463 617 l 463 386 l 386 386 l 386 309 l 309 309 l 309 231 l 231 231 l 231 154 l 463 154 l 463 0 l 0 0 l 0 231 l 77 231 l 77 309 l 154 309 l 154 386 l 231 386 l 231 463 l 0 463 l 0 617 z "},"Ǔ":{"ha":540,"x_min":0,"x_max":463,"o":"m 77 1157 l 154 1157 l 154 1080 l 309 1080 l 309 1157 l 386 1157 l 386 1003 l 309 1003 l 309 926 l 154 926 l 154 1003 l 77 1003 l 77 1157 m 0 849 l 154 849 l 154 154 l 309 154 l 309 849 l 463 849 l 463 77 l 386 77 l 386 0 l 77 0 l 77 77 l 0 77 l 0 849 z "},"ǔ":{"ha":540,"x_min":0,"x_max":463,"o":"m 77 926 l 154 926 l 154 849 l 309 849 l 309 926 l 386 926 l 386 772 l 309 772 l 309 694 l 154 694 l 154 772 l 77 772 l 77 926 m 0 617 l 154 617 l 154 154 l 309 154 l 309 617 l 463 617 l 463 77 l 386 77 l 386 0 l 77 0 l 77 77 l 0 77 l 0 617 z "},"μ":{"ha":540,"x_min":0,"x_max":463,"o":"m 0 617 l 154 617 l 154 154 l 309 154 l 309 617 l 463 617 l 463 77 l 386 77 l 386 0 l 154 0 l 154 -154 l 0 -154 l 0 617 z "}}}
